<svg width="343" height="508" viewBox="0 0 343 508" fill="none" xmlns="http://www.w3.org/2000/svg">
<path d="M152.618 142.01C154.811 140.754 157.236 140.708 159.725 142.082L159.747 142.049L238.836 193.946L238.849 193.925C303.985 231.859 335.108 282.378 341.665 331.84C348.217 381.271 330.214 429.509 297.366 462.845C264.507 496.192 216.767 514.647 163.885 504.46C111.017 494.275 53.1894 455.501 0 374.776L0.327676 374.56C0.315021 373.849 0.626625 373.189 1.0152 372.652C1.54889 371.914 2.37486 371.186 3.36878 370.473C5.37085 369.038 8.33735 367.472 11.9086 365.872C19.0705 362.664 28.8852 359.222 38.8611 356.335C48.8346 353.45 59.026 351.104 66.9417 350.106C70.8889 349.608 74.3388 349.437 76.9336 349.729C78.2277 349.874 79.3837 350.142 80.3001 350.592C80.8049 350.84 81.2658 351.16 81.6325 351.565L81.6415 351.559C81.6515 351.575 81.6615 351.591 81.6714 351.607C81.8931 351.86 82.0771 352.146 82.2131 352.468C107.096 392.025 135.895 411.844 163.161 418.075C190.64 424.353 216.71 416.87 235.906 401.64C255.111 386.403 267.399 363.446 267.355 338.813C267.311 314.299 255.049 287.953 224.879 265.771L224.869 265.788L145.909 213.975C143.943 213.205 142.608 211.102 141.68 208.562C140.724 205.948 140.08 202.553 139.71 198.722C138.969 191.048 139.3 181.407 140.563 172.258C141.824 163.13 144.029 154.366 147.106 148.505C148.639 145.586 150.46 143.246 152.618 142.01ZM251.655 269.658C249.756 268.548 250.474 269.948 248.974 270.807C247.376 271.723 251.193 270.72 249.74 273.489C246.846 279.001 249.072 264.458 247.825 273.489C246.581 282.499 244.423 271.008 245.144 278.468C245.505 282.204 219.097 261.231 219.097 258.453C219.964 260.824 228.461 253.443 229.435 253.857L228.286 257.687L225.901 263.717L225.925 263.686C256.813 286.275 339.321 313.368 339.366 338.813C339.412 364.223 309.266 441.624 289.572 457.249C269.868 472.881 169.885 494.72 141.68 488.275C113.529 481.843 121.359 464.401 96.1423 424.022C97.9221 465.903 5.16651 398.588 2.29822 374.227C-5.74555 371.163 79.6879 355.589 78.5226 355.459C76.2244 358.14 76.2798 358.033 72.394 358.523C64.6431 359.5 70.434 384.382 60.5199 387.251C50.6083 390.118 27.7174 380.27 20.684 383.42C17.1578 385 6.52166 371.041 4.70792 372.341C3.79413 372.996 2.6196 373.783 2.29822 374.227C2.14087 374.445 2.65728 374.367 2.63562 374.453C2.62578 374.492 2.62569 374.513 2.6259 374.52C2.62608 374.525 1.91519 375.376 1.91519 375.376L2.59897 374.538C55.3773 454.225 87.8549 408.085 139.71 418.075C191.774 428.104 182.13 453.162 214.496 420.314C246.874 387.456 282.619 387.503 276.165 338.813C269.723 290.21 306.537 312.921 242.075 275.307L262.759 258.453L257.397 265.771L253.571 268.509L251.655 269.658Z" fill="white"/>
<path d="M190.382 365.251C188.189 366.506 185.764 366.553 183.275 365.178L183.253 365.211L104.164 313.314L104.151 313.335C39.0154 275.402 7.892 224.882 1.33533 175.42C-5.2171 125.989 12.7862 77.7509 45.6338 44.4152C78.4926 11.068 126.233 -7.38715 179.115 2.80032C231.983 12.9854 289.811 51.7591 343 132.484L342.672 132.701C342.685 133.411 342.373 134.071 341.985 134.608C341.451 135.346 340.625 136.074 339.631 136.787C337.629 138.222 334.663 139.788 331.091 141.388C323.93 144.596 314.115 148.039 304.139 150.925C294.165 153.811 283.974 156.157 276.058 157.154C272.111 157.652 268.661 157.823 266.066 157.532C264.772 157.386 263.616 157.118 262.7 156.668C262.195 156.42 261.734 156.1 261.367 155.696L261.358 155.701C261.349 155.685 261.339 155.669 261.329 155.653C261.107 155.4 260.923 155.114 260.787 154.793C235.904 115.235 207.105 95.4159 179.839 89.1856C152.36 82.9069 126.29 90.3906 107.094 105.62C87.8889 120.857 75.601 143.814 75.6453 168.447C75.6894 192.962 87.9511 219.307 118.121 241.489L118.131 241.472L197.091 293.285C199.057 294.055 200.392 296.158 201.32 298.698C202.276 301.312 202.92 304.707 203.29 308.539C204.031 316.212 203.7 325.854 202.437 335.002C201.176 344.13 198.971 352.894 195.894 358.755C194.361 361.674 192.54 364.015 190.382 365.251ZM91.3447 237.602C93.2435 238.712 92.5258 237.312 94.0259 236.453C95.6245 235.537 91.8066 236.54 93.2598 233.772C96.1539 228.259 93.928 242.802 95.175 233.772C96.4192 224.761 98.5769 236.252 97.8563 228.792C97.4954 225.057 123.903 246.029 123.903 248.807C123.036 246.436 114.539 253.817 113.565 253.404L114.714 249.573L117.099 243.543L117.075 243.574C86.1866 220.985 3.67941 193.892 3.63351 168.447C3.58777 143.037 33.7336 65.6363 53.4283 50.011C73.1318 34.379 173.115 12.5403 201.32 18.985C229.471 25.4174 221.641 42.859 246.858 83.2381C245.078 41.3577 337.833 108.673 340.702 133.033C348.746 136.097 263.312 151.671 264.477 151.802C266.776 149.12 266.72 149.227 270.606 148.737C278.357 147.76 272.566 122.878 282.48 120.01C292.392 117.142 315.283 126.991 322.316 123.84C325.842 122.26 336.478 136.22 338.292 134.92C339.206 134.265 340.38 133.477 340.702 133.033C340.859 132.815 340.343 132.893 340.364 132.808C340.374 132.769 340.374 132.747 340.374 132.74C340.374 132.735 341.085 131.884 341.085 131.884L340.401 132.722C287.623 53.035 255.145 99.1753 203.29 89.1856C151.226 79.1558 160.87 54.0987 128.504 86.9458C96.1264 119.804 60.3806 119.758 66.8347 168.447C73.2774 217.05 36.463 194.34 100.925 231.954L80.2409 248.807L85.6035 241.489L89.4295 238.751L91.3447 237.602Z" fill="white"/>
</svg>
