<svg width="343" height="508" viewBox="0 0 343 508" fill="none" xmlns="http://www.w3.org/2000/svg">
<path d="M152.618 142.01C154.811 140.754 157.236 140.708 159.725 142.083L159.747 142.05L238.836 193.947L238.849 193.926C303.985 231.859 335.108 282.378 341.665 331.841C348.217 381.272 330.214 429.51 297.366 462.845C264.507 496.193 216.767 514.648 163.885 504.46C111.017 494.275 53.1894 455.501 0 374.776L0.327676 374.56C0.315021 373.85 0.626625 373.189 1.0152 372.652C1.54889 371.914 2.37486 371.186 3.36878 370.474C5.37085 369.039 8.33735 367.472 11.9086 365.873C19.0705 362.665 28.8852 359.222 38.8611 356.336C48.8346 353.45 59.026 351.104 66.9417 350.106C70.8889 349.609 74.3388 349.437 76.9336 349.729C78.2277 349.874 79.3837 350.142 80.3001 350.592C80.8049 350.84 81.2658 351.16 81.6325 351.565L81.6415 351.56C81.6515 351.576 81.6615 351.592 81.6714 351.608C81.8931 351.861 82.0771 352.146 82.2131 352.468C107.096 392.026 135.895 411.845 163.161 418.075C190.64 424.354 216.71 416.87 235.906 401.64C255.111 386.403 267.399 363.446 267.355 338.813C267.311 314.299 255.049 287.954 224.879 265.771L224.869 265.789L145.909 213.975C143.943 213.205 142.608 211.102 141.68 208.563C140.724 205.949 140.08 202.553 139.71 198.722C138.969 191.048 139.3 181.407 140.563 172.259C141.824 163.131 144.029 154.366 147.106 148.505C148.639 145.587 150.46 143.246 152.618 142.01ZM251.655 269.659C249.756 268.548 250.474 269.949 248.974 270.808C247.376 271.723 251.193 270.721 249.74 273.489C246.846 279.002 249.072 264.458 247.825 273.489C246.581 282.499 244.423 271.009 245.144 278.468C245.505 282.204 219.097 261.232 219.097 258.453C219.964 260.824 228.461 253.443 229.435 253.857L228.286 257.687L225.901 263.718L225.925 263.686C256.813 286.276 339.321 313.369 339.366 338.813C339.412 364.223 309.266 441.624 289.572 457.25C269.868 472.882 169.885 494.72 141.68 488.276C113.529 481.843 121.359 464.402 96.1423 424.022C97.9221 465.903 5.16651 398.588 2.29822 374.228C-5.74555 371.163 79.6879 355.59 78.5226 355.459C76.2244 358.14 76.2798 358.033 72.394 358.523C64.6431 359.5 70.434 384.382 60.5199 387.251C50.6083 390.119 27.7174 380.27 20.684 383.421C17.1578 385 6.52166 371.041 4.70792 372.341C3.79413 372.996 2.6196 373.783 2.29822 374.228C2.14087 374.445 2.65728 374.367 2.63562 374.453C2.62578 374.492 2.62569 374.513 2.6259 374.52C2.62608 374.525 1.91519 375.377 1.91519 375.377L2.59897 374.538C55.3773 454.226 87.8549 408.085 139.71 418.075C191.774 428.105 182.13 453.162 214.496 420.315C246.874 387.456 282.619 387.503 276.165 338.813C269.723 290.21 306.537 312.921 242.075 275.307L262.759 258.453L257.397 265.771L253.571 268.509L251.655 269.659Z" fill="black"/>
<path d="M190.382 365.251C188.189 366.506 185.764 366.553 183.275 365.178L183.253 365.211L104.164 313.314L104.151 313.335C39.0154 275.402 7.892 224.882 1.33533 175.42C-5.2171 125.989 12.7862 77.7512 45.6338 44.4155C78.4926 11.0683 126.233 -7.38684 179.115 2.80063C231.983 12.9857 289.811 51.7594 343 132.485L342.672 132.701C342.685 133.411 342.373 134.071 341.985 134.609C341.451 135.347 340.625 136.075 339.631 136.787C337.629 138.222 334.663 139.788 331.091 141.388C323.93 144.596 314.115 148.039 304.139 150.925C294.165 153.811 283.974 156.157 276.058 157.155C272.111 157.652 268.661 157.823 266.066 157.532C264.772 157.386 263.616 157.118 262.7 156.669C262.195 156.421 261.734 156.101 261.367 155.696L261.358 155.701C261.349 155.685 261.339 155.669 261.329 155.653C261.107 155.4 260.923 155.115 260.787 154.793C235.904 115.235 207.105 95.4162 179.839 89.1859C152.36 82.9072 126.29 90.3909 107.094 105.621C87.8889 120.857 75.601 143.815 75.6453 168.448C75.6894 192.962 87.9511 219.307 118.121 241.49L118.131 241.472L197.091 293.286C199.057 294.056 200.392 296.159 201.32 298.698C202.276 301.312 202.92 304.708 203.29 308.539C204.031 316.213 203.7 325.854 202.437 335.002C201.176 344.13 198.971 352.894 195.894 358.756C194.361 361.674 192.54 364.015 190.382 365.251ZM91.3447 237.602C93.2435 238.713 92.5258 237.312 94.0259 236.453C95.6245 235.538 91.8066 236.54 93.2598 233.772C96.1539 228.259 93.928 242.803 95.175 233.772C96.4192 224.762 98.5769 236.252 97.8563 228.792C97.4954 225.057 123.903 246.029 123.903 248.808C123.036 246.437 114.539 253.817 113.565 253.404L114.714 249.574L117.099 243.543L117.075 243.575C86.1866 220.985 3.67941 193.892 3.63351 168.448C3.58777 143.038 33.7336 65.6366 53.4283 50.0113C73.1318 34.3793 173.115 12.5406 201.32 18.9853C229.471 25.4177 221.641 42.8593 246.858 83.2384C245.078 41.358 337.833 108.673 340.702 133.033C348.746 136.098 263.312 151.671 264.477 151.802C266.776 149.121 266.72 149.228 270.606 148.738C278.357 147.761 272.566 122.878 282.48 120.01C292.392 117.142 315.283 126.991 322.316 123.84C325.842 122.261 336.478 136.22 338.292 134.92C339.206 134.265 340.38 133.477 340.702 133.033C340.859 132.816 340.343 132.894 340.364 132.808C340.374 132.769 340.374 132.748 340.374 132.741C340.374 132.736 341.085 131.884 341.085 131.884L340.401 132.723C287.623 53.0353 255.145 99.1756 203.29 89.1859C151.226 79.1561 160.87 54.099 128.504 86.9461C96.1264 119.805 60.3806 119.758 66.8347 168.448C73.2774 217.05 36.463 194.34 100.925 231.954L80.2409 248.808L85.6035 241.49L89.4295 238.751L91.3447 237.602Z" fill="black"/>
</svg>
